<svg id="visual" viewBox="0 0 960 540" width="960" height="540" xmlns="http://www.w3.org/2000/svg" xmlns:xlink="http://www.w3.org/1999/xlink" version="1.1"><rect x="0" y="0" width="960" height="540" fill="#001220"></rect><defs><linearGradient id="grad1_0" x1="43.8%" y1="0%" x2="100%" y2="100%"><stop offset="14.444444444444446%" stop-color="#fbae3c" stop-opacity="1"></stop><stop offset="85.55555555555554%" stop-color="#fbae3c" stop-opacity="1"></stop></linearGradient></defs><defs><linearGradient id="grad1_1" x1="43.8%" y1="0%" x2="100%" y2="100%"><stop offset="14.444444444444446%" stop-color="#fbae3c" stop-opacity="1"></stop><stop offset="85.55555555555554%" stop-color="#f17c53" stop-opacity="1"></stop></linearGradient></defs><defs><linearGradient id="grad1_2" x1="43.8%" y1="0%" x2="100%" y2="100%"><stop offset="14.444444444444446%" stop-color="#cc5867" stop-opacity="1"></stop><stop offset="85.55555555555554%" stop-color="#f17c53" stop-opacity="1"></stop></linearGradient></defs><defs><linearGradient id="grad1_3" x1="43.8%" y1="0%" x2="100%" y2="100%"><stop offset="14.444444444444446%" stop-color="#cc5867" stop-opacity="1"></stop><stop offset="85.55555555555554%" stop-color="#96446e" stop-opacity="1"></stop></linearGradient></defs><defs><linearGradient id="grad1_4" x1="43.8%" y1="0%" x2="100%" y2="100%"><stop offset="14.444444444444446%" stop-color="#593762" stop-opacity="1"></stop><stop offset="85.55555555555554%" stop-color="#96446e" stop-opacity="1"></stop></linearGradient></defs><defs><linearGradient id="grad1_5" x1="43.8%" y1="0%" x2="100%" y2="100%"><stop offset="14.444444444444446%" stop-color="#593762" stop-opacity="1"></stop><stop offset="85.55555555555554%" stop-color="#232745" stop-opacity="1"></stop></linearGradient></defs><defs><linearGradient id="grad1_6" x1="43.8%" y1="0%" x2="100%" y2="100%"><stop offset="14.444444444444446%" stop-color="#001220" stop-opacity="1"></stop><stop offset="85.55555555555554%" stop-color="#232745" stop-opacity="1"></stop></linearGradient></defs><defs><linearGradient id="grad2_0" x1="0%" y1="0%" x2="56.3%" y2="100%"><stop offset="14.444444444444446%" stop-color="#fbae3c" stop-opacity="1"></stop><stop offset="85.55555555555554%" stop-color="#fbae3c" stop-opacity="1"></stop></linearGradient></defs><defs><linearGradient id="grad2_1" x1="0%" y1="0%" x2="56.3%" y2="100%"><stop offset="14.444444444444446%" stop-color="#f17c53" stop-opacity="1"></stop><stop offset="85.55555555555554%" stop-color="#fbae3c" stop-opacity="1"></stop></linearGradient></defs><defs><linearGradient id="grad2_2" x1="0%" y1="0%" x2="56.3%" y2="100%"><stop offset="14.444444444444446%" stop-color="#f17c53" stop-opacity="1"></stop><stop offset="85.55555555555554%" stop-color="#cc5867" stop-opacity="1"></stop></linearGradient></defs><defs><linearGradient id="grad2_3" x1="0%" y1="0%" x2="56.3%" y2="100%"><stop offset="14.444444444444446%" stop-color="#96446e" stop-opacity="1"></stop><stop offset="85.55555555555554%" stop-color="#cc5867" stop-opacity="1"></stop></linearGradient></defs><defs><linearGradient id="grad2_4" x1="0%" y1="0%" x2="56.3%" y2="100%"><stop offset="14.444444444444446%" stop-color="#96446e" stop-opacity="1"></stop><stop offset="85.55555555555554%" stop-color="#593762" stop-opacity="1"></stop></linearGradient></defs><defs><linearGradient id="grad2_5" x1="0%" y1="0%" x2="56.3%" y2="100%"><stop offset="14.444444444444446%" stop-color="#232745" stop-opacity="1"></stop><stop offset="85.55555555555554%" stop-color="#593762" stop-opacity="1"></stop></linearGradient></defs><defs><linearGradient id="grad2_6" x1="0%" y1="0%" x2="56.3%" y2="100%"><stop offset="14.444444444444446%" stop-color="#232745" stop-opacity="1"></stop><stop offset="85.55555555555554%" stop-color="#001220" stop-opacity="1"></stop></linearGradient></defs><g transform="translate(960, 0)"><path d="M0 397C-57.1 401.2 -114.2 405.4 -159.2 384.3C-204.2 363.3 -237.1 317 -278.6 278.6C-320.1 240.2 -370.3 209.7 -397.3 164.6C-424.3 119.4 -428.1 59.7 -432 0L0 0Z" fill="#0f1d33"></path><path d="M0 340.3C-48.9 343.9 -97.9 347.5 -136.5 329.4C-175 311.4 -203.2 271.7 -238.8 238.8C-274.4 205.9 -317.4 179.7 -340.5 141C-363.7 102.4 -367 51.2 -370.3 0L0 0Z" fill="#3d3056"></path><path d="M0 283.6C-40.8 286.6 -81.6 289.6 -113.7 274.5C-145.9 259.5 -169.3 226.4 -199 199C-228.7 171.6 -264.5 149.8 -283.8 117.5C-303.1 85.3 -305.8 42.7 -308.6 0L0 0Z" fill="#773d6b"></path><path d="M0 226.9C-32.6 229.3 -65.3 231.6 -91 219.6C-116.7 207.6 -135.5 181.1 -159.2 159.2C-182.9 137.3 -211.6 119.8 -227 94C-242.4 68.2 -244.6 34.1 -246.9 0L0 0Z" fill="#b34c6d"></path><path d="M0 170.1C-24.5 171.9 -48.9 173.7 -68.2 164.7C-87.5 155.7 -101.6 135.9 -119.4 119.4C-137.2 102.9 -158.7 89.9 -170.3 70.5C-181.8 51.2 -183.5 25.6 -185.1 0L0 0Z" fill="#e1685e"></path><path d="M0 113.4C-16.3 114.6 -32.6 115.8 -45.5 109.8C-58.3 103.8 -67.7 90.6 -79.6 79.6C-91.5 68.6 -105.8 59.9 -113.5 47C-121.2 34.1 -122.3 17.1 -123.4 0L0 0Z" fill="#f99447"></path><path d="M0 56.7C-8.2 57.3 -16.3 57.9 -22.7 54.9C-29.2 51.9 -33.9 45.3 -39.8 39.8C-45.7 34.3 -52.9 30 -56.8 23.5C-60.6 17.1 -61.2 8.5 -61.7 0L0 0Z" fill="#fbae3c"></path></g><g transform="translate(0, 540)"><path d="M0 -412C51.1 -401.5 102.2 -391.1 155.8 -376C209.3 -361 265.4 -341.3 304.1 -304.1C342.7 -266.8 364.1 -212 382.5 -158.4C400.9 -104.8 416.5 -52.4 432 0L0 0Z" fill="#0f1d33"></path><path d="M0 -353.1C43.8 -344.2 87.6 -335.2 133.5 -322.3C179.4 -309.4 227.5 -292.5 260.6 -260.6C293.8 -228.7 312 -181.7 327.8 -135.8C343.6 -89.9 357 -44.9 370.3 0L0 0Z" fill="#3d3056"></path><path d="M0 -294.3C36.5 -286.8 73 -279.3 111.3 -268.6C149.5 -257.8 189.6 -243.8 217.2 -217.2C244.8 -190.6 260 -151.5 273.2 -113.2C286.4 -74.9 297.5 -37.4 308.6 0L0 0Z" fill="#773d6b"></path><path d="M0 -235.4C29.2 -229.5 58.4 -223.5 89 -214.9C119.6 -206.3 151.6 -195 173.7 -173.7C195.9 -152.5 208 -121.2 218.6 -90.5C229.1 -59.9 238 -30 246.9 0L0 0Z" fill="#b34c6d"></path><path d="M0 -176.6C21.9 -172.1 43.8 -167.6 66.8 -161.2C89.7 -154.7 113.7 -146.3 130.3 -130.3C146.9 -114.4 156 -90.9 163.9 -67.9C171.8 -44.9 178.5 -22.5 185.1 0L0 0Z" fill="#e1685e"></path><path d="M0 -117.7C14.6 -114.7 29.2 -111.7 44.5 -107.4C59.8 -103.1 75.8 -97.5 86.9 -86.9C97.9 -76.2 104 -60.6 109.3 -45.3C114.5 -30 119 -15 123.4 0L0 0Z" fill="#f99447"></path><path d="M0 -58.9C7.3 -57.4 14.6 -55.9 22.3 -53.7C29.9 -51.6 37.9 -48.8 43.4 -43.4C49 -38.1 52 -30.3 54.6 -22.6C57.3 -15 59.5 -7.5 61.7 0L0 0Z" fill="#fbae3c"></path></g></svg>