<svg id="visual" viewBox="0 0 900 450" width="900" height="450" xmlns="http://www.w3.org/2000/svg" xmlns:xlink="http://www.w3.org/1999/xlink" version="1.1"><rect x="0" y="0" width="900" height="450" fill="#fff"></rect><g fill="none" stroke="#0066FF" stroke-width="1"><circle r="22" cx="718" cy="22"></circle><circle r="17" cx="335" cy="150"></circle><circle r="19" cx="92" cy="285"></circle><circle r="20" cx="277" cy="300"></circle><circle r="17" cx="370" cy="319"></circle><circle r="19" cx="553" cy="316"></circle><circle r="19" cx="618" cy="205"></circle><circle r="20" cx="93" cy="77"></circle><circle r="16" cx="280" cy="104"></circle><circle r="18" cx="459" cy="197"></circle><circle r="20" cx="652" cy="340"></circle><circle r="17" cx="7" cy="245"></circle><circle r="19" cx="488" cy="54"></circle><circle r="16" cx="780" cy="55"></circle><circle r="16" cx="851" cy="411"></circle><circle r="17" cx="305" cy="197"></circle><circle r="18" cx="766" cy="430"></circle><circle r="16" cx="484" cy="128"></circle><circle r="19" cx="586" cy="88"></circle><circle r="16" cx="772" cy="9"></circle><circle r="16" cx="491" cy="362"></circle><circle r="16" cx="372" cy="83"></circle><circle r="19" cx="873" cy="240"></circle><circle r="17" cx="190" cy="50"></circle><circle r="18" cx="682" cy="377"></circle><circle r="20" cx="823" cy="170"></circle><circle r="18" cx="104" cy="425"></circle><circle r="17" cx="274" cy="367"></circle><circle r="17" cx="522" cy="230"></circle><circle r="20" cx="386" cy="211"></circle></g></svg>