<svg id="visual" viewBox="0 0 900 450" width="900" height="450" xmlns="http://www.w3.org/2000/svg" xmlns:xlink="http://www.w3.org/1999/xlink" version="1.1"><rect x="0" y="0" width="900" height="450" fill="#ddd"></rect><path d="M230 0L281 64L248 129L331 193L262 257L300 321L358 386L255 450L0 450L0 386L0 321L0 257L0 193L0 129L0 64L0 0Z" fill="#0066ff"></path><path d="M264 0L250 64L223 129L233 193L259 257L194 321L228 386L254 450L0 450L0 386L0 321L0 257L0 193L0 129L0 64L0 0Z" fill="#6e82f8"></path><path d="M166 0L153 64L146 129L201 193L135 257L219 321L232 386L180 450L0 450L0 386L0 321L0 257L0 193L0 129L0 64L0 0Z" fill="#9b9ff0"></path><path d="M96 0L177 64L141 129L103 193L153 257L104 321L171 386L140 450L0 450L0 386L0 321L0 257L0 193L0 129L0 64L0 0Z" fill="#bebde7"></path><path d="M69 0L53 64L72 129L65 193L77 257L77 321L108 386L68 450L0 450L0 386L0 321L0 257L0 193L0 129L0 64L0 0Z" fill="#dddddd"></path></svg>